<?xml version="1.0" encoding="UTF-8"?>
<svg id="_ëîé_1" data-name="‘ëîé_1" xmlns="http://www.w3.org/2000/svg" viewBox="0 0 160.9 179.92">
  <defs>
    <style>
      .cls-1 {
        fill: #fff;
      }
    </style>
  </defs>
  <path class="cls-1" d="M97.97,36.93H17.22C7.72,36.93,0,44.65,0,54.15v108.56c0,9.49,7.72,17.22,17.22,17.22h80.75c9.49,0,17.22-7.72,17.22-17.22V54.15c0-9.49-7.72-17.22-17.22-17.22ZM104.28,162.71c0,3.48-2.83,6.31-6.31,6.31H17.22c-3.48,0-6.31-2.83-6.31-6.31V54.15c0-3.48,2.83-6.31,6.31-6.31h80.75c3.48,0,6.31,2.83,6.31,6.31v108.56Z"/>
  <path class="cls-1" d="M143.68,0H62.93c-9.49,0-17.22,7.72-17.22,17.22v5.51c0,3.01,2.44,5.45,5.45,5.45s5.45-2.44,5.45-5.45v-5.51c0-3.48,2.83-6.31,6.31-6.31h80.75c3.48,0,6.31,2.83,6.31,6.31v108.56c0,3.48-2.83,6.31-6.31,6.31h-17.89c-3.01,0-5.45,2.44-5.45,5.45s2.44,5.45,5.45,5.45h17.89c9.49,0,17.22-7.72,17.22-17.22V17.22c0-9.49-7.72-17.22-17.22-17.22Z"/>
</svg>