<?xml version="1.0" encoding="UTF-8"?>
<svg xmlns="http://www.w3.org/2000/svg" viewBox="0 0 8000 2000">
  <defs>
    <style>
      .cls-1 {
        fill: #fff;
      }

      .cls-2 {
        fill: none;
      }
    </style>
  </defs>
  <g id="_Ñëîé_1" data-name="Ñëîé 1">
    <rect class="cls-2" width="8000" height="2000"/>
  </g>
  <g id="_Ñëîé_2" data-name="Ñëîé 2">
    <path class="cls-1" d="M3023.34,1528.5c-10.26,14.61-31.9,14.63-42.18.04-29.78-42.23-81.25-115.18-87.87-124.29-62.02-84.49-151.37-212.19-224.88-340.82-39.79-69.64-71-132.73-92.74-187.53-26.31-66.33-39.11-120.35-39.11-165.15,0-116.91,43.48-228.7,122.44-314.78,78.48-85.56,185.15-138.48,300.37-149.03,14.22-1.3,28.68-1.96,42.99-1.96,62.86,0,123.85,12.32,181.27,36.62,55.45,23.46,105.24,57.05,147.99,99.82,42.74,42.77,76.31,92.57,99.75,148.04,24.28,57.44,36.59,118.43,36.59,181.28,0,44.8-12.79,98.82-39.1,165.15-21.74,54.79-52.94,117.89-92.73,187.54-73.42,128.5-162.83,256.36-224.91,341-19.32,26.44-83.76,118.18-84.41,119.1l-3.48,4.95ZM3002.36,305c-12.5,0-25.13.57-37.53,1.71-209.94,19.21-368.27,192.92-368.27,404.05,0,119.41,125.79,359.26,345.12,658.04l.08.12c5.05,6.95,21.33,29.92,39.4,55.48,10.28,14.54,31.84,14.54,42.12,0,15.68-22.16,31.33-44.18,39.52-55.39,219.37-299.08,345.16-538.99,345.16-658.25,0-223.74-181.96-405.76-405.61-405.76ZM3002.36,1011.29c-158.81,0-288.02-129.14-288.02-287.87,0-74.73,28.59-145.58,80.51-199.51,51.76-53.76,121.2-85.05,195.53-88.1,3.81-.17,7.84-.26,11.98-.26,158.64,0,287.71,129.14,287.71,287.87,0,63.24-20.2,123.31-58.43,173.7-36.95,48.71-89.37,85.06-147.61,102.34h0c-26.42,7.85-53.9,11.83-81.67,11.83ZM3002.36,495.55c-3.27,0-6.41.07-9.35.2h-.13c-122.55,5.02-218.54,105.02-218.54,227.67s102.29,227.87,228.02,227.87c21.98,0,43.71-3.15,64.58-9.35h.01c96.04-28.5,163.11-118.36,163.11-218.52,0-125.65-102.15-227.87-227.71-227.87ZM3247.55,1736.73c87.09-12.41,164.7-30.46,230.67-53.63,67.88-23.84,120.38-52.05,156.06-83.84,34.13-30.41,51.44-63.42,51.44-98.13,0-48.01-32.63-92.23-96.99-131.42-56.09-34.15-135.17-63.09-229.82-84.22-10.6-2.37-21.55,2.14-27.39,11.3-.1.16-.2.32-.3.48-9.64,15.1-1.31,35.17,16.17,39.06,83.69,18.65,141.03,40.75,176.16,57.23,31.17,14.62,56.19,29.96,74.34,45.6,23.33,20.09,35.16,40.94,35.16,61.98,0,26.33-18.68,52.37-55.53,77.4-30.86,20.96-74.17,41.16-125.27,58.42-88.3,29.82-241.69,65.37-471,65.37s-382.74-35.55-471.04-65.37c-51.1-17.26-94.42-37.46-125.27-58.42-36.85-25.03-55.53-51.07-55.53-77.41,0-21.03,11.82-41.88,35.14-61.97,18.16-15.65,43.17-30.99,74.35-45.61,35.15-16.48,92.51-38.6,176.23-57.24,17.49-3.9,25.82-23.97,16.17-39.07-.1-.16-.2-.31-.3-.47-5.85-9.15-16.79-13.66-27.39-11.29-94.7,21.13-173.81,50.08-229.88,84.23-64.37,39.19-97,83.41-97,131.42,0,34.7,17.31,67.71,51.46,98.13,35.69,31.79,88.21,60,156.11,83.84,65.99,23.17,143.6,41.22,230.7,53.63,85.01,12.12,174.59,18.27,266.25,18.27s181.28-6.15,266.29-18.27Z"/>
  </g>
</svg>