<svg id="Layer_1" data-name="Layer 1" xmlns="http://www.w3.org/2000/svg" viewBox="0 0 215.71 212.42"><defs><style>.cls-1,.cls-2,.cls-3{fill:none;stroke:#fff;stroke-miterlimit:10;}.cls-1{stroke-width:9px;}.cls-2{stroke-width:3px;fill-rule:evenodd;}.cls-3{stroke-width:10px;}.cls-4{fill:#fff;}</style></defs><g id="Layer_1-2" data-name="Layer 1"><path class="cls-1" d="M158,203.9l-106.09-.58a2.9,2.9,0,0,1-2.44-4.44L76.32,156a2.89,2.89,0,0,1,2.47-1.36l53.63.29a5.62,5.62,0,0,1,4.61,2.46l25.66,37.72A5.61,5.61,0,0,1,158,203.9Z" transform="translate(-16.65 -18.66)"/><path class="cls-2" d="M93.35,155.2A35,35,0,0,0,91,157.87a5.2,5.2,0,0,1-.54,2.22c-3.19,6.52-7.74,12.16-11.33,18.45-2.08,3.66-3.76,7.74-5.8,11.55l41.88-34.8Z" transform="translate(-16.65 -18.66)"/><path class="cls-3" d="M224.13,172.34,158.76,53.21a5,5,0,0,1-1.2,2.35c-1.8,3.59-3.59,7.19-5.46,10.75-6.23,11.93-13.09,24.5-22,34.78L193.33,216.2c2.88,5.19,9.62,6.38,12.9,2.3l16.78-21C228.39,190.78,228.83,180.84,224.13,172.34Z" transform="translate(-16.65 -18.66)"/><path class="cls-3" d="M160.29,50.15,50.43,223.86c-1.55,2.46-4.79,3-6.21,1l-19-26.58c-5-7.05-4.73-17.39.78-26.1L112.33,35.71c8.54-13.5,26.36-16.24,34.1-5.24Z" transform="translate(-16.65 -18.66)"/><path class="cls-2" d="M153.51,61.27l-23.75,38.81,8.7,16.19,16.6-54.59A5,5,0,0,1,153.51,61.27Z" transform="translate(-16.65 -18.66)"/><path class="cls-4" d="M136.54,104.29a83.39,83.39,0,0,1,5.59-22.08,1.51,1.51,0,0,0-1-1.85,1.53,1.53,0,0,0-1.84,1,86.07,86.07,0,0,0-5.7,22.88c-.21,1.92,2.8,1.9,3,0Z" transform="translate(-16.65 -18.66)"/><path class="cls-4" d="M132.28,101.49a16.61,16.61,0,0,1,3.69,8.43,1.5,1.5,0,0,0,2.94.4l9.71-32.25c.57-1.88-2.23-2.58-2.89-.8l-9.45,25.6,2.89.8,1.4-7.87a1.5,1.5,0,0,0-2.89-.79l-2.61,6.89c-.68,1.81,2.2,2.57,2.9.79l5.9-15.07c.55-1.38-1.57-2.58-2.5-1.46a13.07,13.07,0,0,0-2.83,11.2,1.52,1.52,0,0,0,2.74.36L149.72,85c1.07-1.61-1.53-3.11-2.59-1.51l-8.44,12.69,2.75.36a9.85,9.85,0,0,1,2.05-8.29L141,86.83l-5.91,15.07,2.9.79,2.6-6.89L137.68,95l-1.4,7.86a1.5,1.5,0,0,0,2.89.8l9.45-25.6-2.89-.8L136,109.52l2.95.4a20.38,20.38,0,0,0-4.56-10.56c-1.24-1.48-3.35.65-2.13,2.13Z" transform="translate(-16.65 -18.66)"/><path class="cls-4" d="M81.13,184l15.24-19.86a1.52,1.52,0,0,0-.54-2.05,1.53,1.53,0,0,0-2,.54L78.54,182.53a1.51,1.51,0,0,0,.54,2.05,1.53,1.53,0,0,0,2-.54Z" transform="translate(-16.65 -18.66)"/><path class="cls-4" d="M85.51,176.75l8.59-13.7c1-1.64-1.57-3.15-2.59-1.52l-8.59,13.71c-1,1.64,1.57,3.15,2.59,1.51Z" transform="translate(-16.65 -18.66)"/><path class="cls-4" d="M87.65,178.58l23.22-19.49c1-.87.15-2.54-1.06-2.56l-7-.1c-2.36,0-4.75-.19-7.1-.08-2.12.1-3.32,1.24-4.34,3a20.59,20.59,0,0,0-2.26,5.91c-.24,1.14,1.07,2.54,2.21,1.69A7,7,0,0,0,93.58,164c.46-1,.83-2.36,2-2.8a16.77,16.77,0,0,1,5-.55c1.9-.08,3.81-.07,5.72,0l-.4-2.94-7.72,1.15c-2.26.34-4.5.6-6.08,2.45a27.82,27.82,0,0,0-3.42,5.91c-1.1,2.25-2.1,4.55-3,6.88a1.52,1.52,0,0,0,2.21,1.69,91,91,0,0,0,8.52-6.64q2-1.8,4-3.72c.59-.59,1.17-1.19,1.74-1.79s1.21-1.6,1.95-1.45l.39-2.95-11.06.53v3l4.85-.54-1.07-2.56-7.61,7.8a1.51,1.51,0,0,0,1.81,2.36,47.23,47.23,0,0,0,9.67-7.18c1.39-1.34-.73-3.46-2.12-2.12a44.13,44.13,0,0,1-9.06,6.71l1.82,2.35,7.62-7.8c.82-.85.29-2.71-1.06-2.56l-4.85.54c-1.87.2-2,3.09,0,3l11.06-.53c1.61-.07,2.14-2.59.4-2.94-2.13-.44-3.49.76-4.86,2.21s-2.72,2.79-4.15,4.12a84.11,84.11,0,0,1-9.46,7.57l2.21,1.69q1.19-3,2.62-6a27.93,27.93,0,0,1,3-5.51c1.27-1.54,3.6-1.5,5.43-1.77l7-1.05c1.74-.26,1.2-2.87-.4-2.95-2.06-.09-4.11-.09-6.16,0a20.58,20.58,0,0,0-5.31.63,5.41,5.41,0,0,0-3.1,2.71c-.55,1-.84,2.61-1.82,3.34L92.05,166a17.51,17.51,0,0,1,1.85-5c.31-.55.65-1.33,1.26-1.61a7.85,7.85,0,0,1,2.82-.06l11.83.16L108.75,157,85.52,176.46c-1.48,1.24.65,3.35,2.13,2.12Z" transform="translate(-16.65 -18.66)"/></g></svg>